<svg width="86" height="86" viewBox="0 0 86 86" fill="none" xmlns="http://www.w3.org/2000/svg">
<path d="M60.1355 69.66H25.7355C20.511 69.66 16.2755 65.4245 16.2755 60.2V25.8C16.2755 20.5755 20.511 16.34 25.7355 16.34H60.1355C65.36 16.34 69.5955 20.5755 69.5955 25.8V60.2C69.5955 65.4245 65.36 69.66 60.1355 69.66Z" fill="#FEFDEF"/>
<path d="M70.4555 30.96H16.2755V25.8C16.2755 20.1008 20.8963 15.48 26.5955 15.48H60.1355C65.8347 15.48 70.4555 20.1008 70.4555 25.8V30.96Z" fill="#92400E"/>
<path d="M20.5755 34.4C21.0505 34.4 21.4355 34.015 21.4355 33.54C21.4355 33.065 21.0505 32.68 20.5755 32.68C20.1005 32.68 19.7155 33.065 19.7155 33.54C19.7155 34.015 20.1005 34.4 20.5755 34.4Z" fill="#1F212B"/>
<path d="M24.0155 34.4C24.4905 34.4 24.8755 34.015 24.8755 33.54C24.8755 33.065 24.4905 32.68 24.0155 32.68C23.5405 32.68 23.1555 33.065 23.1555 33.54C23.1555 34.015 23.5405 34.4 24.0155 34.4Z" fill="#1F212B"/>
<path d="M27.4555 34.4C27.9305 34.4 28.3155 34.015 28.3155 33.54C28.3155 33.065 27.9305 32.68 27.4555 32.68C26.9805 32.68 26.5955 33.065 26.5955 33.54C26.5955 34.015 26.9805 34.4 27.4555 34.4Z" fill="#1F212B"/>
<path d="M30.8955 34.4C31.3705 34.4 31.7555 34.015 31.7555 33.54C31.7555 33.065 31.3705 32.68 30.8955 32.68C30.4205 32.68 30.0355 33.065 30.0355 33.54C30.0355 34.015 30.4205 34.4 30.8955 34.4Z" fill="#1F212B"/>
<path d="M34.3355 34.4C34.8105 34.4 35.1955 34.015 35.1955 33.54C35.1955 33.065 34.8105 32.68 34.3355 32.68C33.8605 32.68 33.4755 33.065 33.4755 33.54C33.4755 34.015 33.8605 34.4 34.3355 34.4Z" fill="#1F212B"/>
<path d="M37.7755 34.4C38.2504 34.4 38.6355 34.015 38.6355 33.54C38.6355 33.065 38.2504 32.68 37.7755 32.68C37.3005 32.68 36.9155 33.065 36.9155 33.54C36.9155 34.015 37.3005 34.4 37.7755 34.4Z" fill="#1F212B"/>
<path d="M41.2155 34.4C41.6905 34.4 42.0755 34.015 42.0755 33.54C42.0755 33.065 41.6905 32.68 41.2155 32.68C40.7405 32.68 40.3555 33.065 40.3555 33.54C40.3555 34.015 40.7405 34.4 41.2155 34.4Z" fill="#1F212B"/>
<path d="M44.6555 34.4C45.1304 34.4 45.5155 34.015 45.5155 33.54C45.5155 33.065 45.1304 32.68 44.6555 32.68C44.1805 32.68 43.7955 33.065 43.7955 33.54C43.7955 34.015 44.1805 34.4 44.6555 34.4Z" fill="#1F212B"/>
<path d="M48.0955 34.4C48.5704 34.4 48.9555 34.015 48.9555 33.54C48.9555 33.065 48.5704 32.68 48.0955 32.68C47.6205 32.68 47.2355 33.065 47.2355 33.54C47.2355 34.015 47.6205 34.4 48.0955 34.4Z" fill="#1F212B"/>
<path d="M51.5355 34.4C52.0104 34.4 52.3955 34.015 52.3955 33.54C52.3955 33.065 52.0104 32.68 51.5355 32.68C51.0605 32.68 50.6755 33.065 50.6755 33.54C50.6755 34.015 51.0605 34.4 51.5355 34.4Z" fill="#1F212B"/>
<path d="M54.9755 34.4C55.4504 34.4 55.8355 34.015 55.8355 33.54C55.8355 33.065 55.4504 32.68 54.9755 32.68C54.5005 32.68 54.1155 33.065 54.1155 33.54C54.1155 34.015 54.5005 34.4 54.9755 34.4Z" fill="#1F212B"/>
<path d="M58.4155 34.4C58.8905 34.4 59.2755 34.015 59.2755 33.54C59.2755 33.065 58.8905 32.68 58.4155 32.68C57.9405 32.68 57.5555 33.065 57.5555 33.54C57.5555 34.015 57.9405 34.4 58.4155 34.4Z" fill="#1F212B"/>
<path d="M61.8555 34.4C62.3304 34.4 62.7155 34.015 62.7155 33.54C62.7155 33.065 62.3304 32.68 61.8555 32.68C61.3805 32.68 60.9955 33.065 60.9955 33.54C60.9955 34.015 61.3805 34.4 61.8555 34.4Z" fill="#1F212B"/>
<path d="M65.2955 34.4C65.7705 34.4 66.1555 34.015 66.1555 33.54C66.1555 33.065 65.7705 32.68 65.2955 32.68C64.8205 32.68 64.4355 33.065 64.4355 33.54C64.4355 34.015 64.8205 34.4 65.2955 34.4Z" fill="#1F212B"/>
<path d="M60.2 15.48H25.8C20.1094 15.48 15.48 20.1094 15.48 25.8V60.2C15.48 65.8906 20.1094 70.52 25.8 70.52H60.2C65.8906 70.52 70.52 65.8906 70.52 60.2V25.8C70.52 20.1094 65.8906 15.48 60.2 15.48ZM60.2 68.8H25.8C21.058 68.8 17.2 64.942 17.2 60.2V56.76H22.7255C22.9629 56.76 23.1555 56.5674 23.1555 56.33C23.1555 56.0926 22.9629 55.9 22.7255 55.9H17.2V44.72H51.9655C52.2029 44.72 52.3955 44.5274 52.3955 44.29C52.3955 44.0526 52.2029 43.86 51.9655 43.86H17.2V30.96H22.7255C22.9629 30.96 23.1555 30.7674 23.1555 30.53C23.1555 30.2927 22.9629 30.1 22.7255 30.1H17.2V25.8C17.2 21.058 21.058 17.2 25.8 17.2H60.2C64.942 17.2 68.8 21.058 68.8 25.8V30.1H25.3055C25.0681 30.1 24.8755 30.2927 24.8755 30.53C24.8755 30.7674 25.0681 30.96 25.3055 30.96H68.8V43.86H54.5455C54.3081 43.86 54.1155 44.0526 54.1155 44.29C54.1155 44.5274 54.3081 44.72 54.5455 44.72H68.8V55.9H25.3055C25.0681 55.9 24.8755 56.0926 24.8755 56.33C24.8755 56.5674 25.0681 56.76 25.3055 56.76H68.8V60.2C68.8 64.942 64.9412 68.8 60.2 68.8Z" fill="#1F212B"/>
</svg>
